<?xml version="1.0" encoding="UTF-8" standalone="no"?><svg xmlns="http://www.w3.org/2000/svg" xmlns:xlink="http://www.w3.org/1999/xlink" contentScriptType="application/ecmascript" contentStyleType="text/css" height="182px" preserveAspectRatio="none" style="width:466px;height:182px;" version="1.1" viewBox="0 0 466 182" width="466px" zoomAndPan="magnify"><defs><filter height="300%" id="f1cdp9ipvr53sd" width="300%" x="-1" y="-1"><feGaussianBlur result="blurOut" stdDeviation="2.0"/><feColorMatrix in="blurOut" result="blurOut2" type="matrix" values="0 0 0 0 0 0 0 0 0 0 0 0 0 0 0 0 0 0 .4 0"/><feOffset dx="4.0" dy="4.0" in="blurOut2" result="blurOut3"/><feBlend in="SourceGraphic" in2="blurOut3" mode="normal"/></filter></defs><g><!--entity NCCP--><ellipse cx="130" cy="26" fill="#F8F8F8" filter="url(#f1cdp9ipvr53sd)" rx="8" ry="8" style="stroke: #383838; stroke-width: 2.0;"/><text fill="#000000" font-family="sans-serif" font-size="14" lengthAdjust="spacingAndGlyphs" textLength="71" x="94.5" y="55.9951">NCC Proto</text><!--entity NATSP--><ellipse cx="354" cy="26" fill="#F8F8F8" filter="url(#f1cdp9ipvr53sd)" rx="8" ry="8" style="stroke: #383838; stroke-width: 2.0;"/><text fill="#000000" font-family="sans-serif" font-size="14" lengthAdjust="spacingAndGlyphs" textLength="78" x="315" y="55.9951">NATS Proto</text><!--entity NauCore--><rect fill="#F8F8F8" filter="url(#f1cdp9ipvr53sd)" height="36.2969" style="stroke: #383838; stroke-width: 1.5;" width="80" x="6" y="8"/><rect fill="#F8F8F8" height="5" style="stroke: #383838; stroke-width: 1.5;" width="10" x="1" y="13"/><rect fill="#F8F8F8" height="5" style="stroke: #383838; stroke-width: 1.5;" width="10" x="1" y="34.2969"/><text fill="#000000" font-family="sans-serif" font-size="14" lengthAdjust="spacingAndGlyphs" textLength="60" x="16" y="30.9951">NauCore</text><!--entity Gateway--><rect fill="#F8F8F8" filter="url(#f1cdp9ipvr53sd)" height="36.2969" style="stroke: #383838; stroke-width: 1.5;" width="79" x="202.5" y="8"/><rect fill="#F8F8F8" height="5" style="stroke: #383838; stroke-width: 1.5;" width="10" x="197.5" y="13"/><rect fill="#F8F8F8" height="5" style="stroke: #383838; stroke-width: 1.5;" width="10" x="197.5" y="34.2969"/><text fill="#000000" font-family="sans-serif" font-size="14" lengthAdjust="spacingAndGlyphs" textLength="59" x="212.5" y="30.9951">Gateway</text><!--entity NATS--><rect fill="#F8F8F8" filter="url(#f1cdp9ipvr53sd)" height="36.2969" style="stroke: #383838; stroke-width: 1.5;" width="57" x="398.5" y="8"/><rect fill="#F8F8F8" height="5" style="stroke: #383838; stroke-width: 1.5;" width="10" x="393.5" y="13"/><rect fill="#F8F8F8" height="5" style="stroke: #383838; stroke-width: 1.5;" width="10" x="393.5" y="34.2969"/><text fill="#000000" font-family="sans-serif" font-size="14" lengthAdjust="spacingAndGlyphs" textLength="37" x="408.5" y="30.9951">NATS</text><!--entity Gateway Client--><rect fill="#F8F8F8" filter="url(#f1cdp9ipvr53sd)" height="36.2969" style="stroke: #383838; stroke-width: 1.5;" width="122" x="293" y="121"/><rect fill="#F8F8F8" height="5" style="stroke: #383838; stroke-width: 1.5;" width="10" x="288" y="126"/><rect fill="#F8F8F8" height="5" style="stroke: #383838; stroke-width: 1.5;" width="10" x="288" y="147.2969"/><text fill="#000000" font-family="sans-serif" font-size="14" lengthAdjust="spacingAndGlyphs" textLength="102" x="303" y="143.9951">Gateway Client</text><!--entity API--><ellipse cx="249" cy="139" fill="#F8F8F8" filter="url(#f1cdp9ipvr53sd)" rx="8" ry="8" style="stroke: #383838; stroke-width: 2.0;"/><text fill="#000000" font-family="sans-serif" font-size="14" lengthAdjust="spacingAndGlyphs" textLength="21" x="238.5" y="168.9951">API</text><!--entity Snitch--><rect fill="#F8F8F8" filter="url(#f1cdp9ipvr53sd)" height="36.2969" style="stroke: #383838; stroke-width: 1.5;" width="63" x="117.5" y="121"/><rect fill="#F8F8F8" height="5" style="stroke: #383838; stroke-width: 1.5;" width="10" x="112.5" y="126"/><rect fill="#F8F8F8" height="5" style="stroke: #383838; stroke-width: 1.5;" width="10" x="112.5" y="147.2969"/><text fill="#000000" font-family="sans-serif" font-size="14" lengthAdjust="spacingAndGlyphs" textLength="43" x="127.5" y="143.9951">Snitch</text><!--link NauCore to NCCP--><path d="M86.0313,26 C97.5959,26 109.1606,26 120.7253,26 " fill="none" id="NauCore-NCCP" style="stroke: #383838; stroke-width: 1.0;"/><!--link NCCP to Gateway--><path d="M144.5049,26 C159.1223,26 182.3328,26 202.4404,26 " fill="none" id="NCCP-Gateway" style="stroke: #383838; stroke-width: 1.0; stroke-dasharray: 7.0,7.0;"/><polygon fill="#383838" points="139.1654,26,148.1654,30,144.1654,26,148.1654,22,139.1654,26" style="stroke: #383838; stroke-width: 1.0;"/><text fill="#000000" font-family="sans-serif" font-size="13" lengthAdjust="spacingAndGlyphs" textLength="27" x="157.25" y="19.0669">impl</text><!--link NATSP to NATS--><path d="M363.125,26 C374.7689,26 386.4128,26 398.0566,26 " fill="none" id="NATSP-NATS" style="stroke: #383838; stroke-width: 1.0;"/><!--link Gateway to NATSP--><path d="M281.8024,26 C301.7848,26 324.7779,26 339.3448,26 " fill="none" id="Gateway-NATSP" style="stroke: #383838; stroke-width: 1.0; stroke-dasharray: 7.0,7.0;"/><polygon fill="#383838" points="344.6735,26,335.6735,22,339.6735,26,335.6735,30,344.6735,26" style="stroke: #383838; stroke-width: 1.0;"/><text fill="#000000" font-family="sans-serif" font-size="13" lengthAdjust="spacingAndGlyphs" textLength="27" x="299.75" y="19.0669">impl</text><!--link NATSP to Gateway Client--><path d="M354,40.2965 C354,60.7507 354,98.3656 354,120.7877 " fill="none" id="NATSP-Gateway Client" style="stroke: #383838; stroke-width: 1.0; stroke-dasharray: 7.0,7.0;"/><polygon fill="#383838" points="354,35.2473,350,44.2473,354,40.2473,358,44.2473,354,35.2473" style="stroke: #383838; stroke-width: 1.0;"/><text fill="#000000" font-family="sans-serif" font-size="13" lengthAdjust="spacingAndGlyphs" textLength="27" x="355" y="87.0669">impl</text><!--link API to Gateway Client--><path d="M258.0234,139 C269.6456,139 281.2678,139 292.8899,139 " fill="none" id="API-Gateway Client" style="stroke: #383838; stroke-width: 1.0;"/><!--link Snitch to API--><path d="M180.6406,139 C198.826,139 220.7741,139 234.8068,139 " fill="none" id="Snitch-API" style="stroke: #383838; stroke-width: 1.0; stroke-dasharray: 7.0,7.0;"/><polygon fill="#383838" points="239.9493,139,230.9493,135,234.9493,139,230.9493,143,239.9493,139" style="stroke: #383838; stroke-width: 1.0;"/><text fill="#000000" font-family="sans-serif" font-size="13" lengthAdjust="spacingAndGlyphs" textLength="23" x="198.75" y="132.0669">use</text><!--
@startuml

skinparam {
    monochrome true
}

interface "NCC Proto" as NCCP
interface "NATS Proto" as NATSP

[NauCore] - NCCP

NCCP <. [Gateway]: impl

NATSP - [NATS]

[Gateway] .> NATSP: impl

NATSP <.. [Gateway Client]: impl

API - [Gateway Client]

[Snitch] .> API: use

@enduml

PlantUML version 1.2018.11(Sat Sep 22 21:43:53 YEKT 2018)
(GPL source distribution)
Java Runtime: OpenJDK Runtime Environment
JVM: OpenJDK 64-Bit Server VM
Java Version: 1.8.0_152-release-1343-b26
Operating System: Linux
OS Version: 4.15.0-45-generic
Default Encoding: UTF-8
Language: ru
Country: RU
--></g></svg>